<svg width="13" height="21" viewBox="0 0 13 21" fill="none" xmlns="http://www.w3.org/2000/svg">
<path id="Union" fill-rule="evenodd" clip-rule="evenodd" d="M1.8251 18.2666C1.43458 18.6571 1.43458 19.2903 1.8251 19.6808L2.43714 20.2928C2.82766 20.6834 3.46083 20.6834 3.85135 20.2928L11.1924 12.9518C11.1925 12.9517 11.1925 12.9517 11.1925 12.9518C11.1925 12.9518 11.1925 12.9518 11.1925 12.9518L12.2929 11.8514C12.6834 11.4609 12.6834 10.8277 12.2929 10.4372L2.5627 0.707058C2.17218 0.316534 1.53901 0.316534 1.14849 0.707058L0.755243 1.1003C0.364719 1.49083 0.364719 2.12399 0.755243 2.51452L8.45911 10.2184C8.84963 10.6089 8.84963 11.2421 8.45911 11.6326L1.8251 18.2666Z" fill="black"/>
</svg>
