<svg width="115" height="115" viewBox="0 0 115 115" fill="none" xmlns="http://www.w3.org/2000/svg">
<g id="Globus">
<g id="Group 961">
<path id="Vector 586 (Stroke)" fill-rule="evenodd" clip-rule="evenodd" d="M57.5278 79.4355C58.5202 79.4355 59.3247 80.24 59.3247 81.2324V96.9091C59.3247 97.9015 58.5202 98.706 57.5278 98.706C56.5354 98.706 55.731 97.9015 55.731 96.9091V81.2324C55.731 80.24 56.5354 79.4355 57.5278 79.4355Z" fill="black"/>
<path id="Ellipse 575 (Stroke)" fill-rule="evenodd" clip-rule="evenodd" d="M58.6419 14.5193C58.7632 15.5042 58.063 16.401 57.0781 16.5223C54.4083 16.851 51.7354 17.5315 49.1191 18.5906C33.054 25.0935 25.3025 43.3885 31.8055 59.4535C38.3084 75.5186 56.6034 83.2701 72.6685 76.7672C75.5372 75.6059 78.1383 74.0703 80.4399 72.2404C81.2166 71.6228 82.347 71.7518 82.9646 72.5286C83.5822 73.3054 83.4532 74.4358 82.6764 75.0534C80.108 77.0954 77.2083 78.8065 74.0169 80.0983C56.1121 87.346 35.722 78.7068 28.4743 60.802C21.2266 42.8972 29.8658 22.5071 47.7706 15.2594C50.6811 14.0812 53.6599 13.3223 56.6389 12.9555C57.6238 12.8342 58.5206 13.5343 58.6419 14.5193Z" fill="black"/>
<path id="Vector 585 (Stroke)" fill-rule="evenodd" clip-rule="evenodd" d="M45.798 13.8022C46.6833 13.3537 47.7645 13.7079 48.213 14.5932L80.3323 78.0032C80.7808 78.8885 80.4266 79.9697 79.5413 80.4181C78.656 80.8665 77.5748 80.5124 77.1264 79.6271L45.007 16.2171C44.5586 15.3318 44.9128 14.2506 45.798 13.8022Z" fill="black"/>
<path id="Ellipse 574" d="M87.2927 48.3911C87.2927 63.0373 75.4196 74.9104 60.7734 74.9104C46.1272 74.9104 34.2542 63.0373 34.2542 48.3911C34.2542 33.7449 46.1272 21.8718 60.7734 21.8718C75.4196 21.8718 87.2927 33.7449 87.2927 48.3911Z" fill="white"/>
<path id="Ellipse 574 (Stroke)" fill-rule="evenodd" clip-rule="evenodd" d="M89.0896 48.3911C89.0896 64.0297 76.412 76.7073 60.7734 76.7073C45.1349 76.7073 32.4573 64.0297 32.4573 48.3911C32.4573 32.7525 45.1349 20.0749 60.7734 20.0749C76.412 20.0749 89.0896 32.7525 89.0896 48.3911ZM60.7734 74.9104C75.4196 74.9104 87.2927 63.0373 87.2927 48.3911C87.2927 33.7449 75.4196 21.8718 60.7734 21.8718C46.1272 21.8718 34.2542 33.7449 34.2542 48.3911C34.2542 63.0373 46.1272 74.9104 60.7734 74.9104Z" fill="black"/>
<path id="Vector 583 (Stroke)" fill-rule="evenodd" clip-rule="evenodd" d="M52.3652 32.2925C52.6251 31.998 53.0462 31.9064 53.4049 32.0664L60.8699 35.397C60.8819 35.4023 60.8938 35.408 60.9056 35.4139L64.8103 37.3662C65.2015 37.5618 65.395 38.0106 65.2687 38.4292L63.0866 45.6645C62.9722 46.0439 62.6228 46.3035 62.2265 46.3035H58.2399L58.5567 48.1408L62.6364 50.233C62.883 50.3595 63.0575 50.5926 63.1091 50.8649C63.1608 51.1371 63.084 51.418 62.9009 51.626L58.0717 57.1138V60.3349C58.0717 60.5965 57.9577 60.8451 57.7595 61.0158L53.6251 64.576C53.31 64.8473 52.8499 64.867 52.5128 64.6235L48.4068 61.658L43.728 58.8051C43.537 58.6887 43.3963 58.5051 43.3335 58.2904L41.9554 53.5818C41.8934 53.3701 41.9115 53.1431 42.0061 52.9439L44.0153 48.7139L41.9899 43.917C41.8859 43.6707 41.8971 43.3908 42.0203 43.1535L45.1211 37.1816C45.1401 37.145 45.1615 37.1099 45.1853 37.0763L47.1377 34.32C47.3061 34.0822 47.5794 33.9409 47.8708 33.9409H50.9107L52.3652 32.2925ZM53.2757 33.9764L51.9899 35.4337C51.8193 35.627 51.574 35.7377 51.3162 35.7377H48.3354L46.6873 38.0645L43.8095 43.6069L45.8274 48.3861C45.927 48.6222 45.9212 48.8896 45.8112 49.1211L43.7761 53.4056L44.9604 57.452L49.3722 60.1421C49.3921 60.1542 49.4115 60.1672 49.4305 60.1808L52.99 62.7516L56.2748 59.923V56.7747C56.2748 56.5562 56.3545 56.3452 56.4988 56.1812L60.7896 51.3053L57.3375 49.535C57.0862 49.4061 56.9101 49.1666 56.8621 48.8882L56.2879 45.5577C56.2429 45.2966 56.3154 45.0289 56.4861 44.8263C56.6568 44.6236 56.9083 44.5066 57.1733 44.5066H61.559L63.3298 38.635L60.1197 37.0299L53.2757 33.9764Z" fill="black"/>
<path id="Vector 584 (Stroke)" fill-rule="evenodd" clip-rule="evenodd" d="M81.2547 42.9194C81.5302 43.0805 81.6996 43.3757 81.6996 43.6949V50.0485C81.6996 50.1774 81.6718 50.3048 81.6182 50.422L79.4896 55.0784V59.5789C79.4896 59.9192 79.2973 60.2303 78.993 60.3825L72.6394 63.5592C72.3882 63.6848 72.0927 63.6857 71.8407 63.5617C71.5887 63.4376 71.4093 63.2028 71.3557 62.9271L70.3888 57.9548C70.3562 57.7869 70.3721 57.6131 70.4348 57.454L72.1346 53.1393L71.3555 49.1142C71.3152 48.9058 71.35 48.6898 71.4537 48.5045L73.3874 45.0515C73.5269 44.8024 73.7765 44.6344 74.0599 44.599L78.3046 44.0684L80.3606 42.9119C80.6388 42.7554 80.9792 42.7582 81.2547 42.9194ZM79.9027 45.2311L79.0316 45.7211C78.93 45.7782 78.8183 45.815 78.7026 45.8295L74.7333 46.3257L73.1821 49.0956L73.9484 53.0546C73.9808 53.2222 73.9648 53.3957 73.9022 53.5546L72.2027 57.8689L72.8938 61.4231L77.6927 59.0236V54.8827C77.6927 54.7538 77.7205 54.6264 77.7741 54.5092L79.9027 49.8529V45.2311Z" fill="black"/>
<g id="Group 962">
<path id="Ellipse 576" d="M57.2673 91.3712C48.7982 91.3712 41.9326 94.7807 41.9326 98.9864H72.602C72.602 94.7807 65.7364 91.3712 57.2673 91.3712Z" fill="white"/>
<path id="Ellipse 576 (Stroke)" fill-rule="evenodd" clip-rule="evenodd" d="M41.9326 100.783C40.9402 100.783 40.1357 99.9788 40.1357 98.9864C40.1357 95.8298 42.6634 93.463 45.6248 91.9923C48.6973 90.4666 52.816 89.5744 57.2673 89.5744C61.7186 89.5744 65.8373 90.4666 68.9098 91.9923C71.8712 93.463 74.3988 95.8298 74.3988 98.9864C74.3988 99.9788 73.5944 100.783 72.602 100.783H41.9326ZM72.1726 97.1896C70.5463 93.851 64.49 91.3712 57.2673 91.3712C50.0446 91.3712 43.9882 93.851 42.362 97.1896C42.0813 97.7657 41.9326 98.3674 41.9326 98.9864H72.602C72.602 98.3674 72.4533 97.7657 72.1726 97.1896Z" fill="black"/>
<path id="Rectangle 17" d="M37.7075 100.746C37.7075 100.27 38.0928 99.885 38.5681 99.885H76.4876C76.9629 99.885 77.3482 100.27 77.3482 100.746C77.3482 101.221 76.9629 101.606 76.4876 101.606H38.5681C38.0928 101.606 37.7075 101.221 37.7075 100.746Z" fill="black"/>
<path id="Rectangle 17 (Stroke)" fill-rule="evenodd" clip-rule="evenodd" d="M76.4876 101.606C76.9629 101.606 77.3482 101.221 77.3482 100.746C77.3482 100.27 76.9629 99.885 76.4876 99.885H38.5681C38.0928 99.885 37.7075 100.27 37.7075 100.746C37.7075 101.221 38.0928 101.606 38.5681 101.606H76.4876ZM38.5681 98.0881H76.4876C77.9553 98.0881 79.1451 99.2779 79.1451 100.746C79.1451 102.213 77.9553 103.403 76.4876 103.403H38.5681C37.1004 103.403 35.9106 102.213 35.9106 100.746C35.9106 99.2779 37.1004 98.0881 38.5681 98.0881Z" fill="black"/>
</g>
</g>
</g>
</svg>
