<svg width="92" height="92" viewBox="0 0 92 92" fill="none" xmlns="http://www.w3.org/2000/svg">
<g id="Book">
<g id="Group 19">
<path id="Vector 27" d="M10.0217 50.8933C10.0217 48.5587 10.6608 47.3434 11.8761 46.416L49.2302 61.8307C47.3433 67.5873 48.9153 72.7808 50.7972 74.2393L12.6442 56.8097C11.5621 55.9629 10.0217 53.8675 10.0217 50.8933Z" fill="white"/>
<path id="Vector 27 (Stroke)" fill-rule="evenodd" clip-rule="evenodd" d="M11.004 45.2732C11.4107 44.9629 11.9516 44.892 12.4245 45.0872L49.7785 60.5019C50.4739 60.7889 50.8305 61.5635 50.5961 62.2784C49.7286 64.9252 49.6638 67.4219 50.0156 69.3944C50.3812 71.4445 51.146 72.6909 51.6778 73.103C52.2547 73.5501 52.405 74.3586 52.0273 74.9831C51.6496 75.6077 50.8638 75.85 50.1999 75.5468L12.0468 58.1172C11.9441 58.0703 11.8472 58.0114 11.7582 57.9418C10.3725 56.8573 8.58423 54.3631 8.58423 50.8933C8.58423 49.6025 8.75971 48.5016 9.17648 47.5502C9.60276 46.577 10.2388 45.8572 11.004 45.2732ZM12.6442 56.8097C11.5621 55.9629 10.0217 53.8675 10.0217 50.8933C10.0217 48.5587 10.6608 47.3434 11.8761 46.416L49.2302 61.8307C47.9187 65.8316 48.2782 69.5605 49.2512 71.9526C49.6782 73.0022 50.2233 73.7944 50.7972 74.2392L12.6442 56.8097Z" fill="black"/>
<path id="Vector 25" d="M81.9781 31.7338L45.8461 17.7609L11.6902 46.5535L50.9272 63.0669L81.9781 31.7338Z" fill="black"/>
<path id="Vector 25 (Stroke)" fill-rule="evenodd" clip-rule="evenodd" d="M44.9197 16.6618C45.3211 16.3234 45.875 16.2308 46.3647 16.4201L82.4966 30.393C82.9489 30.568 83.2826 30.9592 83.3839 31.4335C83.4852 31.9078 83.3405 32.4011 82.9991 32.7456L51.9483 64.0788C51.5353 64.4955 50.9104 64.6195 50.3696 64.3919L11.1326 47.8785C10.6714 47.6844 10.3443 47.2644 10.2691 46.7698C10.1938 46.2751 10.3811 45.7769 10.7637 45.4544L44.9197 16.6618ZM45.8462 17.7609L81.9781 31.7338L50.9272 63.0669L11.6902 46.5535L45.8462 17.7609Z" fill="black"/>
<path id="Vector 28" d="M61.319 35.0148L45.5205 28.8105L42.4878 31.4126L58.1529 37.973L61.319 35.0148Z" fill="white"/>
<path id="Vector 26" d="M81.9465 42.4501C78.4926 39.6358 79.1322 35.1265 81.7866 31.8005L49.4857 62.3101C47.503 67.0753 49.112 71.6824 50.8292 74.223L81.9465 42.4501Z" fill="white"/>
<path id="Vector 26 (Stroke)" fill-rule="evenodd" clip-rule="evenodd" d="M82.7597 30.7426C83.3152 31.2536 83.3809 32.1072 82.91 32.6972C81.7328 34.1723 81.0608 35.8411 81.0126 37.3626C80.966 38.8356 81.4945 40.2276 82.8544 41.3357C83.1677 41.5909 83.359 41.9661 83.3816 42.3695C83.4043 42.7729 83.2561 43.1672 82.9734 43.4559L51.8561 75.2288C51.5541 75.5372 51.1294 75.6935 50.6995 75.6546C50.2696 75.6157 49.8799 75.3856 49.6382 75.028C47.7503 72.235 45.9304 67.1128 48.1584 61.7579C48.236 61.5716 48.3519 61.4037 48.4986 61.2651L80.7994 30.7554C81.3481 30.2372 82.2043 30.2315 82.7597 30.7426ZM81.7865 31.8005L49.4856 62.3101C47.8016 66.3576 48.7087 70.2912 50.0725 72.941C50.3143 73.4109 50.5705 73.8404 50.8291 74.223L81.9464 42.4501C81.5918 42.1611 81.2803 41.8543 81.0098 41.5328C79.5743 39.8268 79.2901 37.7055 79.8212 35.6342C80.165 34.2933 80.8505 32.9733 81.7865 31.8005Z" fill="black"/>
<path id="Vector 29 (Stroke)" fill-rule="evenodd" clip-rule="evenodd" d="M79.9364 42.0783C80.2125 42.3636 80.2051 42.8186 79.9199 43.0947L57.9171 64.3939C57.6319 64.67 57.1769 64.6626 56.9008 64.3773C56.6247 64.0921 56.6321 63.6371 56.9173 63.361L78.9201 42.0618C79.2053 41.7857 79.6603 41.7931 79.9364 42.0783Z" fill="black"/>
<path id="Vector 30 (Stroke)" fill-rule="evenodd" clip-rule="evenodd" d="M78.6677 40.2985C78.9377 40.5894 78.9207 41.0442 78.6298 41.3142L64.4303 54.4903C64.1393 54.7603 63.6846 54.7433 63.4145 54.4523C63.1445 54.1613 63.1615 53.7066 63.4525 53.4366L77.652 40.2605C77.943 39.9905 78.3977 40.0075 78.6677 40.2985Z" fill="black"/>
<path id="Vector 31 (Stroke)" fill-rule="evenodd" clip-rule="evenodd" d="M17.7976 54.8895C17.9531 54.5242 18.3752 54.3542 18.7404 54.5096L32.4339 60.3379C32.7991 60.4934 32.9692 60.9155 32.8137 61.2807C32.6583 61.646 32.2362 61.8161 31.8709 61.6606L18.1775 55.8323C17.8122 55.6768 17.6422 55.2547 17.7976 54.8895Z" fill="black"/>
</g>
</g>
</svg>
