<svg width="91" height="91" viewBox="0 0 91 91" fill="none" xmlns="http://www.w3.org/2000/svg">
<g id="Bookshelf">
<g id="Group 1053">
<path id="Rectangle 83" d="M8.25586 72.0424H82.8666C82.8666 73.4192 81.7505 74.5353 80.3736 74.5353H10.7488C9.372 74.5353 8.25586 73.4192 8.25586 72.0424Z" fill="black"/>
<rect id="Rectangle 82" x="5.78687" y="68.1044" width="79.4262" height="4.49297" rx="2.24649" fill="white" stroke="black" stroke-width="2"/>
<rect id="Rectangle 77" x="8.39478" y="17.5874" width="15.7342" height="50.2307" rx="5" fill="white" stroke="black" stroke-width="2" stroke-linecap="round" stroke-linejoin="round"/>
<rect id="Rectangle 78" x="23.8188" y="17.5874" width="15.7342" height="50.2307" rx="5" fill="white" stroke="black" stroke-width="2" stroke-linecap="round" stroke-linejoin="round"/>
<ellipse id="Ellipse 622" cx="16.2126" cy="46.8648" rx="2.87671" ry="4.16204" stroke="black" stroke-width="2"/>
<ellipse id="Ellipse 623" cx="31.686" cy="46.8648" rx="2.87671" ry="4.16204" stroke="black" stroke-width="2"/>
<g id="Group 1048">
<path id="Vector 784" d="M8.99023 27.3399H23.3126" stroke="black" stroke-width="2" stroke-linecap="round" stroke-linejoin="round"/>
<path id="Vector 785" d="M8.99023 30.5227H23.3126" stroke="black" stroke-width="2" stroke-linecap="round" stroke-linejoin="round"/>
</g>
<g id="Group 1049">
<path id="Vector 784_2" d="M24.5249 27.3399H38.8472" stroke="black" stroke-width="2" stroke-linecap="round" stroke-linejoin="round"/>
<path id="Vector 785_2" d="M24.5249 30.5227H38.8472" stroke="black" stroke-width="2" stroke-linecap="round" stroke-linejoin="round"/>
</g>
<g id="Group 1051">
<rect id="Rectangle 79" x="39.2429" y="17.5874" width="15.7342" height="50.2307" rx="5" fill="white" stroke="black" stroke-width="2" stroke-linecap="round" stroke-linejoin="round"/>
<ellipse id="Ellipse 624" cx="47.1101" cy="46.8649" rx="2.87671" ry="4.16204" stroke="black" stroke-width="2"/>
<g id="Group 1050">
<path id="Vector 784_3" d="M39.655 27.34H53.9774" stroke="black" stroke-width="2" stroke-linecap="round" stroke-linejoin="round"/>
<path id="Vector 785_3" d="M39.6545 30.5228H53.9769" stroke="black" stroke-width="2" stroke-linecap="round" stroke-linejoin="round"/>
</g>
</g>
<g id="Group 1062">
<g id="Group 1063">
<rect id="Rectangle 80" x="53.6589" y="20.5201" width="15.6689" height="50.1587" rx="5" transform="rotate(-15 53.6589 20.5201)" fill="black"/>
<ellipse id="Ellipse 624_2" cx="68.7973" cy="46.722" rx="2.87671" ry="4.16204" transform="rotate(-15 68.7973 46.722)" fill="black" stroke="white" stroke-width="2"/>
<path id="Vector 784_4" d="M57.4702 29.5433L69.9036 26.2118" stroke="white" stroke-width="2" stroke-linecap="round" stroke-linejoin="round"/>
<path id="Vector 785_4" d="M58.2942 32.6175L70.7276 29.286" stroke="white" stroke-width="2" stroke-linecap="round" stroke-linejoin="round"/>
</g>
</g>
</g>
</g>
</svg>
