<svg width="100" height="100" viewBox="0 0 100 100" fill="none" xmlns="http://www.w3.org/2000/svg">
<g id="Diploma">
<g id="Group 1070">
<path id="Rectangle 10" d="M12.8416 25.6564C12.8416 24.7935 13.5411 24.0939 14.4041 24.0939H89.452C90.3149 24.0939 91.0145 24.7935 91.0145 25.6564V74.0624C91.0145 74.9254 90.3149 75.6249 89.452 75.6249H14.4041C13.5411 75.6249 12.8416 74.9254 12.8416 74.0624V25.6564Z" fill="black"/>
<path id="Rectangle 8" d="M8.9856 21.6658C8.9856 20.8029 9.68515 20.1033 10.5481 20.1033H85.596C86.4589 20.1033 87.1585 20.8029 87.1585 21.6658V70.0718C87.1585 70.9348 86.4589 71.6343 85.596 71.6343H10.5481C9.68515 71.6343 8.9856 70.9348 8.9856 70.0718V21.6658Z" fill="white"/>
<path id="Rectangle 8 (Stroke)" fill-rule="evenodd" clip-rule="evenodd" d="M10.5481 18.5408H85.596C87.3219 18.5408 88.721 19.9399 88.721 21.6658V70.0718C88.721 71.7977 87.3219 73.1968 85.596 73.1968H10.5481C8.82221 73.1968 7.4231 71.7977 7.4231 70.0718V21.6658C7.4231 19.9399 8.8222 18.5408 10.5481 18.5408ZM10.5481 20.1033C9.68515 20.1033 8.9856 20.8029 8.9856 21.6658V70.0718C8.9856 70.9348 9.68515 71.6343 10.5481 71.6343H85.596C86.4589 71.6343 87.1585 70.9348 87.1585 70.0718V21.6658C87.1585 20.8029 86.4589 20.1033 85.596 20.1033H10.5481Z" fill="black"/>
<g id="Vector">
<path fill-rule="evenodd" clip-rule="evenodd" d="M20.9995 38.7126C20.9995 38.2811 21.3493 37.9313 21.7808 37.9313H74.3634C74.7949 37.9313 75.1447 38.2811 75.1447 38.7126C75.1447 39.1441 74.7949 39.4938 74.3634 39.4938H21.7808C21.3493 39.4938 20.9995 39.1441 20.9995 38.7126Z" fill="black"/>
<path fill-rule="evenodd" clip-rule="evenodd" d="M37.1247 29.9188C37.1247 29.4873 37.4745 29.1375 37.906 29.1375H56.8357C57.2672 29.1375 57.617 29.4873 57.617 29.9188C57.617 30.3503 57.2672 30.7 56.8357 30.7H37.906C37.4745 30.7 37.1247 30.3503 37.1247 29.9188Z" fill="black"/>
<path fill-rule="evenodd" clip-rule="evenodd" d="M20.9995 42.744C20.9995 42.3125 21.3493 41.9627 21.7808 41.9627H74.3634C74.7949 41.9627 75.1447 42.3125 75.1447 42.744C75.1447 43.1754 74.7949 43.5252 74.3634 43.5252H21.7808C21.3493 43.5252 20.9995 43.1754 20.9995 42.744Z" fill="black"/>
<path fill-rule="evenodd" clip-rule="evenodd" d="M20.9995 47.4913C20.9995 47.0599 21.3493 46.7101 21.7808 46.7101H74.3634C74.7949 46.7101 75.1447 47.0599 75.1447 47.4913C75.1447 47.9228 74.7949 48.2726 74.3634 48.2726H21.7808C21.3493 48.2726 20.9995 47.9228 20.9995 47.4913Z" fill="black"/>
<path fill-rule="evenodd" clip-rule="evenodd" d="M20.9995 52.2239C20.9995 51.7924 21.3493 51.4426 21.7808 51.4426H74.3634C74.7949 51.4426 75.1447 51.7924 75.1447 52.2239C75.1447 52.6553 74.7949 53.0051 74.3634 53.0051H21.7808C21.3493 53.0051 20.9995 52.6553 20.9995 52.2239Z" fill="black"/>
<path fill-rule="evenodd" clip-rule="evenodd" d="M20.9995 56.6054C20.9995 56.1739 21.3493 55.8242 21.7808 55.8242H46.3193C46.7508 55.8242 47.1006 56.1739 47.1006 56.6054C47.1006 57.0369 46.7508 57.3867 46.3193 57.3867H21.7808C21.3493 57.3867 20.9995 57.0369 20.9995 56.6054Z" fill="black"/>
</g>
<g id="Group 23">
<path id="Rectangle 9" d="M69.8857 62.6545H78.299V77.5529L74.0924 73.3463L69.8857 77.5529V62.6545Z" fill="white"/>
<path id="Rectangle 9 (Stroke)" fill-rule="evenodd" clip-rule="evenodd" d="M68.3232 62.6545C68.3232 61.7915 69.0228 61.092 69.8857 61.092H78.299C79.1619 61.092 79.8615 61.7915 79.8615 62.6545V77.5529C79.8615 78.1849 79.4808 78.7546 78.8969 78.9964C78.313 79.2383 77.641 79.1046 77.1941 78.6577L74.0924 75.556L70.9906 78.6577C70.5437 79.1046 69.8717 79.2383 69.2878 78.9964C68.7039 78.7546 68.3232 78.1849 68.3232 77.5529V62.6545ZM74.0924 73.3463L78.299 77.5529V62.6545H69.8857V77.5529L74.0924 73.3463Z" fill="black"/>
<path id="Ellipse 53" d="M81.1991 63.1335C81.1991 66.9572 78.1386 70.0569 74.3633 70.0569C70.5881 70.0569 67.5276 66.9572 67.5276 63.1335C67.5276 59.3098 70.5881 56.2101 74.3633 56.2101C78.1386 56.2101 81.1991 59.3098 81.1991 63.1335Z" fill="white"/>
<path id="Ellipse 53 (Stroke)" fill-rule="evenodd" clip-rule="evenodd" d="M82.7616 63.1335C82.7616 67.8013 79.0203 71.6194 74.3633 71.6194C69.7064 71.6194 65.9651 67.8013 65.9651 63.1335C65.9651 58.4657 69.7064 54.6476 74.3633 54.6476C79.0203 54.6476 82.7616 58.4657 82.7616 63.1335ZM74.3633 70.0569C78.1386 70.0569 81.1991 66.9572 81.1991 63.1335C81.1991 59.3098 78.1386 56.2101 74.3633 56.2101C70.5881 56.2101 67.5276 59.3098 67.5276 63.1335C67.5276 66.9572 70.5881 70.0569 74.3633 70.0569Z" fill="black"/>
<path id="Ellipse 54 (Stroke)" fill-rule="evenodd" clip-rule="evenodd" d="M79.5768 63.1333C79.5768 66.0193 77.2616 68.3929 74.3639 68.3929C71.4663 68.3929 69.1511 66.0193 69.1511 63.1333C69.1511 60.2473 71.4663 57.8737 74.3639 57.8737C77.2616 57.8737 79.5768 60.2473 79.5768 63.1333ZM74.3639 66.8304C76.38 66.8304 78.0143 65.1751 78.0143 63.1333C78.0143 61.0914 76.38 59.4362 74.3639 59.4362C72.3479 59.4362 70.7136 61.0914 70.7136 63.1333C70.7136 65.1751 72.3479 66.8304 74.3639 66.8304Z" fill="black"/>
</g>
</g>
</g>
</svg>
